<svg xmlns="http://www.w3.org/2000/svg" viewBox="0 0 512 512" role="img" aria-label="PlasmidLab icon">
  <defs>
    <linearGradient id="bg" x1="86" y1="54" x2="426" y2="468" gradientUnits="userSpaceOnUse">
      <stop offset="0" stop-color="#0b1226"/>
      <stop offset=".52" stop-color="#12345f"/>
      <stop offset="1" stop-color="#0f766e"/>
    </linearGradient>
    <radialGradient id="glow" cx="166" cy="112" r="360" gradientUnits="userSpaceOnUse">
      <stop offset="0" stop-color="#75f3d6" stop-opacity=".48"/>
      <stop offset=".38" stop-color="#38bdf8" stop-opacity=".14"/>
      <stop offset="1" stop-color="#0b1226" stop-opacity="0"/>
    </radialGradient>
    <linearGradient id="ring" x1="119" y1="118" x2="392" y2="392" gradientUnits="userSpaceOnUse">
      <stop offset="0" stop-color="#e8fbff"/>
      <stop offset=".45" stop-color="#9cf5d0"/>
      <stop offset="1" stop-color="#38bdf8"/>
    </linearGradient>
    <filter id="softShadow" x="-30%" y="-30%" width="160%" height="160%">
      <feDropShadow dx="0" dy="18" stdDeviation="18" flood-color="#020617" flood-opacity=".42"/>
    </filter>
  </defs>

  <rect width="512" height="512" rx="112" fill="url(#bg)"/>
  <rect width="512" height="512" rx="112" fill="url(#glow)"/>
  <path d="M86 74c76-28 193-30 274 7 41 18 69 43 85 72" fill="none" stroke="#ffffff" stroke-opacity=".16" stroke-width="18" stroke-linecap="round"/>

  <g filter="url(#softShadow)">
    <circle cx="256" cy="256" r="144" fill="none" stroke="#e0f8ff" stroke-opacity=".26" stroke-width="44"/>
    <circle cx="256" cy="256" r="144" fill="none" stroke="url(#ring)" stroke-width="28"/>
    <path d="M161 149a144 144 0 0 1 199 17" fill="none" stroke="#ffffff" stroke-width="18" stroke-linecap="round" stroke-opacity=".95"/>
    <path d="M380 217a144 144 0 0 1-38 135" fill="none" stroke="#64ffda" stroke-width="22" stroke-linecap="round"/>
    <path d="M382 189l22 56-60-9z" fill="#64ffda"/>
  </g>

  <g stroke="#0b1226" stroke-width="8" stroke-linecap="round" opacity=".62">
    <path d="M171 183l-24-20"/>
    <path d="M341 161l18-25"/>
    <path d="M396 283l31 6"/>
    <path d="M286 397l6 31"/>
    <path d="M126 269l-31 6"/>
  </g>

  <g fill="#c8fff1">
    <circle cx="171" cy="183" r="10"/>
    <circle cx="341" cy="161" r="9"/>
    <circle cx="396" cy="283" r="9"/>
    <circle cx="286" cy="397" r="9"/>
    <circle cx="126" cy="269" r="8"/>
  </g>

  <g filter="url(#softShadow)">
    <circle cx="256" cy="256" r="63" fill="#eefcff" fill-opacity=".95"/>
    <circle cx="256" cy="256" r="50" fill="#0f2745"/>
    <path d="M225 220c37 20 25 53 62 72" fill="none" stroke="#62f4d0" stroke-width="10" stroke-linecap="round"/>
    <path d="M287 220c-37 20-25 53-62 72" fill="none" stroke="#38bdf8" stroke-width="10" stroke-linecap="round"/>
    <g stroke="#e9feff" stroke-width="6" stroke-linecap="round">
      <path d="M236 236h40"/>
      <path d="M230 256h52"/>
      <path d="M236 276h40"/>
    </g>
  </g>

  <g fill="none" stroke-linecap="round" stroke-linejoin="round" opacity=".9">
    <path d="M142 385c18-44 31 27 48-10 15-34 27 22 43-8 14-26 28 17 43-2 20-25 34 31 55-4 13-21 27 2 39 15" stroke="#38bdf8" stroke-width="8"/>
    <path d="M142 402h228" stroke="#e0f2fe" stroke-opacity=".22" stroke-width="5"/>
  </g>
</svg>
